#!OML:ASF C:\Vicon Data\Big\jianyuan-13\jianyuan\Session 1\Capture.male.ASF
:FULLY-SPECIFIED
:DEGREES
126
root -8.233050 17.275247 -9.490324 9.427494 -5.160510 -0.578396
lowerback -15.008185 4.726178 -0.451809 
upperback 0.663783 6.453053 -0.920911 
thorax 9.184360 3.101877 0.725839 
lowerneck -0.999004 -2.569069 2.460646 
upperneck 1.359585 -3.413507 -3.639791 
head 0.477294 -1.720205 -1.560293 
rclavicle 0.000000 0.000000 
rhumerus -19.030893 -1.672507 -91.717347 
rradius 43.021591 
rwrist 17.633819 
rhand -17.209013 -18.706069 
rfingers 0.000000 
rthumb 9.033685 -48.492667 
lclavicle 0.000000 0.000000 
lhumerus -71.179291 38.445124 32.979324 
lradius 23.699274 
lwrist -64.492938 
lhand -20.058341 1.153544 
lfingers 0.000000 
lthumb 6.283507 31.040356 
rfemur 8.418767 4.764278 22.174202 
rtibia 28.798361 
rfoot -10.925193 2.493854 
rtoes -29.997499 
lfemur -38.957655 1.596447 -17.507690 
ltibia 22.266741 
lfoot -7.588539 10.355932 
ltoes -30.795512 
127
root -8.200915 17.279864 -9.314485 9.762087 -4.624465 -0.259349
lowerback -15.191671 4.568648 -0.953627 
upperback 0.624674 6.340769 -0.988183 
thorax 9.198805 3.024722 0.919399 
lowerneck -1.292706 -2.638148 2.299927 
upperneck 1.289588 -3.511451 -3.496204 
head 0.506934 -1.771279 -1.491529 
rclavicle 0.000000 0.000000 
rhumerus -19.741562 -2.163434 -91.548121 
rradius 42.988967 
rwrist 17.806646 
rhand -17.277888 -18.613409 
rfingers 0.000000 
rthumb 8.967212 -48.402771 
lclavicle 0.000000 0.000000 
lhumerus -70.810148 38.779509 33.265432 
lradius 23.644707 
lwrist -64.628123 
lhand -19.903270 1.032270 
lfingers 0.000000 
lthumb 6.433189 30.914548 
rfemur 8.209252 4.331117 21.692926 
rtibia 29.406980 
rfoot -9.775305 2.437597 
rtoes -30.272667 
lfemur -39.480895 1.731230 -18.309702 
ltibia 23.497312 
lfoot -6.838820 9.938547 
ltoes -33.802908 
128
root -8.171043 17.283001 -9.134128 9.929912 -4.111858 -0.031339
lowerback -15.238925 4.485904 -1.279651 
upperback 0.619893 6.299199 -1.084530 
thorax 9.196829 2.991686 0.991135 
lowerneck -1.290523 -2.735492 2.267376 
upperneck 0.962254 -3.650098 -3.326626 
head 0.404540 -1.838477 -1.428338 
rclavicle 0.000000 0.000000 
rhumerus -20.607254 -2.784321 -91.406682 
rradius 43.102591 
rwrist 17.758826 
rhand -17.518093 -18.663362 
rfingers 0.000000 
rthumb 8.735377 -48.462561 
lclavicle 0.000000 0.000000 
lhumerus -70.398609 39.095707 33.429196 
lradius 23.616423 
lwrist -65.167966 
lhand -19.940831 1.046726 
lfingers 0.000000 
lthumb 6.396926 30.930103 
rfemur 8.174906 4.048521 21.393271 
rtibia 30.036094 
rfoot -8.532243 2.190221 
rtoes -30.505358 
lfemur -39.830684 1.745543 -18.891619 
ltibia 24.787726 
lfoot -6.518153 9.410506 
ltoes -34.820203 
129
root -8.139240 17.290966 -8.950629 10.103314 -3.644699 0.026330
lowerback -15.329554 4.462970 -1.361437 
upperback 0.623774 6.291890 -1.150986 
thorax 9.251772 2.984482 0.971841 
lowerneck -1.274737 -2.843326 2.078868 
upperneck 0.661714 -3.799011 -3.081659 
head 0.312599 -1.911014 -1.314870 
rclavicle 0.000000 0.000000 
rhumerus -21.517699 -3.412589 -91.244276 
rradius 43.198485 
rwrist 17.761993 
rhand -17.605541 -18.725249 
rfingers 0.000000 
rthumb 8.651029 -48.527992 
lclavicle 0.000000 0.000000 
lhumerus -69.763678 39.375066 33.847352 
lradius 23.457406 
lwrist -65.454149 
lhand -20.000980 1.093617 
lfingers 0.000000 
lthumb 6.338875 30.978744 
rfemur 8.089965 3.822185 21.269346 
rtibia 30.647166 
rfoot -7.233609 2.000773 
rtoes -30.557405 
lfemur -40.132367 1.656645 -19.189965 
ltibia 25.935698 
lfoot -6.085437 8.906656 
ltoes -33.524388 
130
root -8.109721 17.294743 -8.767779 10.172295 -3.243182 0.005462
lowerback -15.298817 4.474910 -1.411276 
upperback 0.649606 6.318727 -1.166946 
thorax 9.258745 2.995376 0.987114 
lowerneck -1.502588 -2.957058 2.044354 
upperneck 0.601120 -3.955492 -2.982743 
head 0.330271 -1.990323 -1.281970 
rclavicle 0.000000 0.000000 
rhumerus -22.438079 -4.104798 -90.967921 
rradius 43.171915 
rwrist 17.658149 
rhand -17.822676 -18.605228 
rfingers 0.000000 
rthumb 8.441497 -48.416556 
lclavicle 0.000000 0.000000 
lhumerus -69.139190 39.680512 34.293385 
lradius 23.445887 
lwrist -65.753941 
lhand -19.873458 0.974519 
lfingers 0.000000 
lthumb 6.461978 30.855948 
rfemur 8.048490 3.614950 21.257652 
rtibia 31.331305 
rfoot -5.828928 1.726467 
rtoes -30.993361 
lfemur -40.273293 1.633739 -19.404320 
ltibia 26.921368 
lfoot -5.554563 8.384696 
ltoes -33.231356 
131
root -8.075670 17.300332 -8.583743 10.222806 -2.968113 -0.089931
lowerback -15.316063 4.569457 -1.267122 
upperback 0.705062 6.426437 -1.226551 
thorax 9.351239 3.053512 0.873017 
lowerneck -1.555227 -3.069090 2.029530 
upperneck 0.389549 -4.110657 -2.823381 
head 0.273362 -2.066897 -1.228199 
rclavicle 0.000000 0.000000 
rhumerus -23.312179 -4.764691 -90.788486 
rradius 43.153081 
rwrist 17.319136 
rhand -17.920491 -18.606224 
rfingers 0.000000 
rthumb 8.347037 -48.421254 
lclavicle 0.000000 0.000000 
lhumerus -68.242828 39.913562 34.999109 
lradius 23.397831 
lwrist -65.809050 
lhand -19.939279 1.050241 
lfingers 0.000000 
lthumb 6.398434 30.933589 
rfemur 7.895042 3.254880 21.165282 
rtibia 32.240532 
rfoot -4.458146 1.694024 
rtoes -32.335896 
lfemur -40.185853 1.583883 -19.521162 
ltibia 27.633648 
lfoot -4.966073 8.015801 
ltoes -32.321983 
132
root -8.025791 17.317490 -8.413211 10.664878 -2.532421 0.470452
lowerback -15.517533 4.493289 -1.730684 
upperback 0.556608 6.429747 -1.442111 
thorax 9.277666 3.039777 0.909461 
lowerneck -1.629243 -3.153688 2.067376 
upperneck 0.335140 -4.226236 -2.850968 
head 0.264638 -2.125166 -1.244525 
rclavicle 0.000000 0.000000 
rhumerus -24.307127 -5.412813 -90.501776 
rradius 43.078065 
rwrist 17.175908 
rhand -17.925977 -18.770871 
rfingers 0.000000 
rthumb 8.341775 -48.586157 
lclavicle 0.000000 0.000000 
lhumerus -67.392454 39.955542 35.899625 
lradius 23.351694 
lwrist -65.635412 
lhand -19.888502 0.978068 
lfingers 0.000000 
lthumb 6.447460 30.859925 
rfemur 7.131886 2.004096 19.989052 
rtibia 33.373618 
rfoot -3.021514 2.403209 
rtoes -34.016660 
lfemur -40.377952 1.112925 -20.406005 
ltibia 28.111904 
lfoot -4.147541 7.605589 
ltoes -30.172480 
133
root -7.983477 17.327979 -8.233403 10.817405 -2.351274 0.599917
lowerback -15.530284 4.550270 -1.814930 
upperback 0.487943 6.526411 -1.523091 
thorax 9.208659 3.086213 0.889279 
lowerneck -1.884770 -3.245756 2.199889 
upperneck 0.496251 -4.352104 -2.962003 
head 0.348571 -2.190665 -1.310145 
rclavicle 0.000000 0.000000 
rhumerus -25.255519 -6.073209 -90.194083 
rradius 42.811322 
rwrist 17.295252 
rhand -17.864139 -18.821525 
rfingers 0.000000 
rthumb 8.401458 -48.634413 
lclavicle 0.000000 0.000000 
lhumerus -66.699454 40.089098 36.577549 
lradius 23.330949 
lwrist -65.708104 
lhand -19.903743 1.010610 
lfingers 0.000000 
lthumb 6.432737 30.892910 
rfemur 6.585887 1.609147 19.587094 
rtibia 34.726057 
rfoot -1.779953 2.464077 
rtoes -34.906758 
lfemur -40.194223 0.925155 -20.778673 
ltibia 28.516108 
lfoot -3.642049 7.224154 
ltoes -27.142136 
134
root -7.941979 17.342341 -8.058853 10.957697 -2.228780 0.763633
lowerback -15.467586 4.586936 -1.948412 
upperback 0.385946 6.600205 -1.592432 
thorax 9.053715 3.121728 0.894996 
lowerneck -1.872489 -3.241877 2.210182 
upperneck 0.498090 -4.346290 -3.037808 
head 0.345449 -2.188117 -1.335514 
rclavicle 0.000000 0.000000 
rhumerus -26.194545 -6.571945 -89.892783 
rradius 42.377581 
rwrist 17.488885 
rhand -17.839566 -18.696326 
rfingers 0.000000 
rthumb 8.425160 -48.508248 
lclavicle 0.000000 0.000000 
lhumerus -65.803084 39.961311 37.737027 
lradius 23.359553 
lwrist -64.966231 
lhand -20.074838 1.196424 
lfingers 0.000000 
lthumb 6.267576 31.083711 
rfemur 5.859598 1.164116 19.097790 
rtibia 36.273328 
rfoot -0.551937 2.495489 
rtoes -36.056206 
lfemur -40.004702 0.680916 -21.160922 
ltibia 28.974758 
lfoot -3.369957 7.038730 
ltoes -23.959991 
